<svg width="700" height="700" viewBox="0 0 700 700" fill="none" xmlns="http://www.w3.org/2000/svg">
<circle cx="350" cy="350" r="145" fill="#DEF4FC"/>
<mask id="mask0" mask-type="alpha" maskUnits="userSpaceOnUse" x="205" y="205" width="290" height="290">
<circle cx="350" cy="350" r="145" fill="white"/>
</mask>
<g mask="url(#mask0)">
<path fill-rule="evenodd" clip-rule="evenodd" d="M462 230C462 223.373 456.627 218 450 218H392C385.373 218 380 223.373 380 230C380 236.627 385.373 242 392 242H450C456.627 242 462 236.627 462 230ZM278 338C284.627 338 290 343.373 290 350C290 356.627 284.627 362 278 362H275C268.373 362 263 367.373 263 374C263 380.627 268.373 386 275 386H399C405.627 386 411 380.627 411 374C411 367.373 405.627 362 399 362H347L346.999 361.99C340.604 361.727 335.5 356.46 335.5 350C335.5 343.54 340.604 338.273 346.999 338.01L347 338H349C355.627 338 361 332.627 361 326C361 319.373 355.627 314 349 314H304L304 313.99C297.605 313.728 292.5 308.46 292.5 302C292.5 295.54 297.605 290.272 304 290.01L304 290H324C330.627 290 336 284.627 336 278C336 271.373 330.627 266 324 266H251C244.373 266 239 271.373 239 278C239 284.627 244.373 290 251 290H256C262.627 290 268 295.373 268 302C268 308.627 262.627 314 256 314H207C200.373 314 195 319.373 195 326C195 332.627 200.373 338 207 338H278ZM335 410C341.627 410 347 415.373 347 422C347 428.627 341.627 434 335 434C328.373 434 323 428.627 323 422C323 415.373 328.373 410 335 410ZM457 422C457 415.373 451.627 410 445 410H383C376.373 410 371 415.373 371 422C371 428.627 376.373 434 383 434H445C451.627 434 457 428.627 457 422ZM371 470C371 463.373 365.627 458 359 458H339C332.373 458 327 463.373 327 470C327 476.627 332.373 482 339 482H359C365.627 482 371 476.627 371 470ZM450 362C456.627 362 462 367.373 462 374C462 380.627 456.627 386 450 386C443.373 386 438 380.627 438 374C438 367.373 443.373 362 450 362ZM239 374C239 367.373 233.627 362 227 362H207C200.373 362 195 367.373 195 374C195 380.627 200.373 386 207 386H227C233.627 386 239 380.627 239 374ZM426 266C432.627 266 438 271.373 438 278C438 284.627 432.627 290 426 290H406C399.373 290 394 284.627 394 278C394 271.373 399.373 266 406 266H426Z" fill="#B1D5E2"/>
</g>
<mask id="mask1" mask-type="alpha" maskUnits="userSpaceOnUse" x="205" y="205" width="290" height="290">
<circle cx="350" cy="350" r="145" fill="white"/>
</mask>
<g mask="url(#mask1)">
<rect opacity="0.0775757" x="351" y="205" width="145" height="290" fill="black"/>
</g>
</svg>
