<svg width="700" height="700" viewBox="0 0 700 700" fill="none" xmlns="http://www.w3.org/2000/svg">
<circle cx="350" cy="350" r="291" fill="#ECAD7A"/>
<mask id="mask0" mask-type="alpha" maskUnits="userSpaceOnUse" x="59" y="59" width="582" height="582">
<circle cx="350" cy="350" r="291" fill="white"/>
</mask>
<g mask="url(#mask0)">
<path fill-rule="evenodd" clip-rule="evenodd" d="M97 353C103.627 353 109 358.373 109 365C109 371.627 103.627 377 97 377H-59C-65.6274 377 -71 371.627 -71 365C-71 358.373 -65.6274 353 -59 353H97ZM317 353C323.627 353 329 358.373 329 365C329 371.627 323.627 377 317 377H239L239 377.01C232.605 377.272 227.5 382.54 227.5 389C227.5 395.46 232.605 400.728 239 400.99L239 401H399C405.627 401 411 406.373 411 413C411 419.627 405.627 425 399 425H142C135.373 425 130 419.627 130 413C130 406.373 135.373 401 142 401H191C197.627 401 203 395.627 203 389C203 382.373 197.627 377 191 377H161C154.373 377 149 371.627 149 365C149 358.373 154.373 353 161 353H317ZM112 449C118.627 449 124 454.373 124 461C124 467.627 118.627 473 112 473H39C32.3726 473 27 467.627 27 461C27 454.373 32.3726 449 39 449H112ZM399 449C405.627 449 411 454.373 411 461C411 467.627 405.627 473 399 473H326C319.373 473 314 467.627 314 461C314 454.373 319.373 449 326 449H399ZM663 461C663 454.373 657.627 449 651 449H485C478.373 449 473 454.373 473 461C473 467.627 478.373 473 485 473H651C657.627 473 663 467.627 663 461ZM473 377C479.627 377 485 382.373 485 389C485 395.627 479.627 401 473 401H464C457.373 401 452 406.373 452 413C452 419.627 457.373 425 464 425H721C727.627 425 733 419.627 733 413C733 406.373 727.627 401 721 401H521L521 400.99C514.605 400.728 509.5 395.46 509.5 389C509.5 382.54 514.605 377.272 521 377.01L521 377H545C551.627 377 557 371.627 557 365C557 358.373 551.627 353 545 353H389C382.373 353 377 358.373 377 365C377 371.627 382.373 377 389 377H473ZM771 365C771 358.373 765.627 353 759 353H603C596.373 353 591 358.373 591 365C591 371.627 596.373 377 603 377H759C765.627 377 771 371.627 771 365Z" fill="#F0D29F"/>
</g>
<mask id="mask1" mask-type="alpha" maskUnits="userSpaceOnUse" x="59" y="59" width="582" height="582">
<circle cx="350" cy="350" r="291" fill="white"/>
</mask>
<g mask="url(#mask1)">
<path d="M218 461C218 454.373 212.627 449 206 449H177C170.373 449 165 443.627 165 437C165 430.373 170.373 425 177 425H278C284.627 425 290 430.373 290 437C290 443.627 284.627 449 278 449H275L274.999 449.01C268.604 449.273 263.5 454.54 263.5 461C263.5 467.46 268.604 472.727 274.999 472.99L275 473H278C284.627 473 290 478.373 290 485C290 491.627 284.627 497 278 497H202C195.373 497 190 491.627 190 485C190 478.373 195.373 473 202 473H206C212.627 473 218 467.627 218 461Z" fill="#D86534"/>
</g>
<mask id="mask2" mask-type="alpha" maskUnits="userSpaceOnUse" x="59" y="59" width="582" height="582">
<circle cx="350" cy="350" r="291" fill="white"/>
</mask>
<g mask="url(#mask2)">
<path fill-rule="evenodd" clip-rule="evenodd" d="M525 113C518.373 113 513 118.373 513 125C513 131.627 518.373 137 525 137H681C687.627 137 693 131.627 693 125C693 118.373 687.627 113 681 113H525ZM305 113C298.373 113 293 118.373 293 125C293 131.627 298.373 137 305 137H383L383 137.01C389.395 137.272 394.5 142.54 394.5 149C394.5 155.46 389.395 160.728 383 160.99L383 161H223C216.373 161 211 166.373 211 173C211 179.627 216.373 185 223 185H480C486.627 185 492 179.627 492 173C492 166.373 486.627 161 480 161H431C424.373 161 419 155.627 419 149C419 142.373 424.373 137 431 137H461C467.627 137 473 131.627 473 125C473 118.373 467.627 113 461 113H305ZM510 209C503.373 209 498 214.373 498 221C498 227.627 503.373 233 510 233H583C589.627 233 595 227.627 595 221C595 214.373 589.627 209 583 209H510ZM223 209C216.373 209 211 214.373 211 221C211 227.627 216.373 233 223 233H296C302.627 233 308 227.627 308 221C308 214.373 302.627 209 296 209H223ZM-41 221C-41 214.373 -35.6274 209 -29 209H137C143.627 209 149 214.373 149 221C149 227.627 143.627 233 137 233H-29C-35.6274 233 -41 227.627 -41 221ZM149 137C142.373 137 137 142.373 137 149C137 155.627 142.373 161 149 161H158C164.627 161 170 166.373 170 173C170 179.627 164.627 185 158 185H-99C-105.627 185 -111 179.627 -111 173C-111 166.373 -105.627 161 -99 161H101L101 160.99C107.395 160.728 112.5 155.46 112.5 149C112.5 142.54 107.395 137.272 101 137.01L101 137H77C70.3726 137 65 131.627 65 125C65 118.373 70.3726 113 77 113H233C239.627 113 245 118.373 245 125C245 131.627 239.627 137 233 137H149ZM-149 125C-149 118.373 -143.627 113 -137 113H19C25.6274 113 31 118.373 31 125C31 131.627 25.6274 137 19 137H-137C-143.627 137 -149 131.627 -149 125Z" fill="#DC8E61"/>
</g>
<mask id="mask3" mask-type="alpha" maskUnits="userSpaceOnUse" x="59" y="59" width="582" height="582">
<circle cx="350" cy="350" r="291" fill="white"/>
</mask>
<g mask="url(#mask3)">
<path fill-rule="evenodd" clip-rule="evenodd" d="M683 497C676.373 497 671 502.373 671 509C671 515.627 676.373 521 683 521H839C845.627 521 851 515.627 851 509C851 502.373 845.627 497 839 497H683ZM463 497C456.373 497 451 502.373 451 509C451 515.627 456.373 521 463 521H541L541 521.01C547.395 521.272 552.5 526.54 552.5 533C552.5 539.46 547.395 544.728 541 544.99L541 545H381C374.373 545 369 550.373 369 557C369 563.627 374.373 569 381 569H638C644.627 569 650 563.627 650 557C650 550.373 644.627 545 638 545H589C582.373 545 577 539.627 577 533C577 526.373 582.373 521 589 521H619C625.627 521 631 515.627 631 509C631 502.373 625.627 497 619 497H463ZM668 593C661.373 593 656 598.373 656 605C656 611.627 661.373 617 668 617H741C747.627 617 753 611.627 753 605C753 598.373 747.627 593 741 593H668ZM381 593C374.373 593 369 598.373 369 605C369 611.627 374.373 617 381 617H454C460.627 617 466 611.627 466 605C466 598.373 460.627 593 454 593H381ZM117 605C117 598.373 122.373 593 129 593H295C301.627 593 307 598.373 307 605C307 611.627 301.627 617 295 617H129C122.373 617 117 611.627 117 605ZM307 521C300.373 521 295 526.373 295 533C295 539.627 300.373 545 307 545H316C322.627 545 328 550.373 328 557C328 563.627 322.627 569 316 569H59C52.3726 569 47 563.627 47 557C47 550.373 52.3726 545 59 545H259L259 544.99C265.395 544.728 270.5 539.46 270.5 533C270.5 526.54 265.395 521.272 259 521.01L259 521H235C228.373 521 223 515.627 223 509C223 502.373 228.373 497 235 497H391C397.627 497 403 502.373 403 509C403 515.627 397.627 521 391 521H307ZM9 509C9 502.373 14.3726 497 21 497H177C183.627 497 189 502.373 189 509C189 515.627 183.627 521 177 521H21C14.3726 521 9 515.627 9 509Z" fill="#D89D6D"/>
</g>
<mask id="mask4" mask-type="alpha" maskUnits="userSpaceOnUse" x="59" y="59" width="582" height="582">
<circle cx="350" cy="350" r="291" fill="white"/>
</mask>
<g mask="url(#mask4)">
<path fill-rule="evenodd" clip-rule="evenodd" d="M236 281C242.627 281 248 286.373 248 293C248 299.627 242.627 305 236 305H226C219.373 305 214 310.373 214 317C214 323.627 219.373 329 226 329H315C321.627 329 327 323.627 327 317C327 310.373 321.627 305 315 305H305L304.999 304.99C298.604 304.727 293.5 299.46 293.5 293C293.5 286.54 298.604 281.273 304.999 281.01L305 281H370C376.627 281 382 275.627 382 269C382 262.373 376.627 257 370 257H171C164.373 257 159 262.373 159 269C159 275.627 164.373 281 171 281H236ZM190 317C190 310.373 184.627 305 178 305H116C109.373 305 104 310.373 104 317C104 323.627 109.373 329 116 329H178C184.627 329 190 323.627 190 317ZM68 305C74.6274 305 80 310.373 80 317C80 323.627 74.6274 329 68 329H40C33.3726 329 28 323.627 28 317C28 310.373 33.3726 305 40 305H68ZM543 317C543 310.373 537.627 305 531 305H363C356.373 305 351 310.373 351 317C351 323.627 356.373 329 363 329H531C537.627 329 543 323.627 543 317ZM607 305C613.627 305 619 310.373 619 317C619 323.627 613.627 329 607 329H579C572.373 329 567 323.627 567 317C567 310.373 572.373 305 579 305H607ZM572 269C572 262.373 566.627 257 560 257H418C411.373 257 406 262.373 406 269C406 275.627 411.373 281 418 281H560C566.627 281 572 275.627 572 269ZM658 257C664.627 257 670 262.373 670 269C670 275.627 664.627 281 658 281H608C601.373 281 596 275.627 596 269C596 262.373 601.373 257 608 257H658ZM111 269C111 262.373 105.627 257 99 257H71C64.3726 257 59 262.373 59 269C59 275.627 64.3726 281 71 281H99C105.627 281 111 275.627 111 269Z" fill="#D89D6D"/>
</g>
<mask id="mask5" mask-type="alpha" maskUnits="userSpaceOnUse" x="59" y="59" width="582" height="582">
<circle cx="350" cy="350" r="291" fill="white"/>
</mask>
<g mask="url(#mask5)">
<rect opacity="0.0775757" x="350" y="59" width="292" height="582" fill="black"/>
</g>
</svg>
