<svg width="700" height="700" viewBox="0 0 700 700" fill="none" xmlns="http://www.w3.org/2000/svg">
<circle cx="350" cy="350" r="225" fill="#497EFA"/>
<mask id="mask0" mask-type="alpha" maskUnits="userSpaceOnUse" x="125" y="125" width="450" height="450">
<circle cx="350" cy="350" r="225" fill="white"/>
</mask>
<g mask="url(#mask0)">
<path fill-rule="evenodd" clip-rule="evenodd" d="M140.177 291C146.805 291 152.177 296.373 152.177 303C152.177 309.627 146.805 315 140.177 315H-15.8228C-22.4502 315 -27.8228 309.627 -27.8228 303C-27.8228 296.373 -22.4502 291 -15.8228 291H140.177ZM360.177 291C366.805 291 372.177 296.373 372.177 303C372.177 309.627 366.805 315 360.177 315H282.177L282.178 315.01C275.782 315.272 270.677 320.54 270.677 327C270.677 333.46 275.782 338.728 282.178 338.99L282.177 339H442.177C448.805 339 454.177 344.373 454.177 351C454.177 357.627 448.805 363 442.177 363H185.177C178.55 363 173.177 357.627 173.177 351C173.177 344.373 178.55 339 185.177 339H234.177C240.805 339 246.177 333.627 246.177 327C246.177 320.373 240.805 315 234.177 315H204.177C197.55 315 192.177 309.627 192.177 303C192.177 296.373 197.55 291 204.177 291H360.177ZM155.177 387C161.805 387 167.177 392.373 167.177 399C167.177 405.627 161.805 411 155.177 411H82.1772C75.5498 411 70.1772 405.627 70.1772 399C70.1772 392.373 75.5498 387 82.1772 387H155.177ZM442.177 387C448.805 387 454.177 392.373 454.177 399C454.177 405.627 448.805 411 442.177 411H369.177C362.55 411 357.177 405.627 357.177 399C357.177 392.373 362.55 387 369.177 387H442.177ZM706.177 399C706.177 392.373 700.805 387 694.177 387H528.177C521.55 387 516.177 392.373 516.177 399C516.177 405.627 521.55 411 528.177 411H694.177C700.805 411 706.177 405.627 706.177 399ZM516.177 315C522.805 315 528.177 320.373 528.177 327C528.177 333.627 522.805 339 516.177 339H507.177C500.55 339 495.177 344.373 495.177 351C495.177 357.627 500.55 363 507.177 363H764.177C770.805 363 776.177 357.627 776.177 351C776.177 344.373 770.805 339 764.177 339H564.177L564.178 338.99C557.782 338.728 552.677 333.46 552.677 327C552.677 320.54 557.782 315.272 564.178 315.01L564.177 315H588.177C594.805 315 600.177 309.627 600.177 303C600.177 296.373 594.805 291 588.177 291H432.177C425.55 291 420.177 296.373 420.177 303C420.177 309.627 425.55 315 432.177 315H516.177ZM814.177 303C814.177 296.373 808.805 291 802.177 291H646.177C639.55 291 634.177 296.373 634.177 303C634.177 309.627 639.55 315 646.177 315H802.177C808.805 315 814.177 309.627 814.177 303Z" fill="#356CEE"/>
</g>
<mask id="mask1" mask-type="alpha" maskUnits="userSpaceOnUse" x="125" y="125" width="450" height="450">
<circle cx="350" cy="350" r="225" fill="white"/>
</mask>
<g mask="url(#mask1)">
<path opacity="0.4" fill-rule="evenodd" clip-rule="evenodd" d="M140.177 147C146.805 147 152.177 152.373 152.177 159C152.177 165.627 146.805 171 140.177 171H-15.8228C-22.4502 171 -27.8228 165.627 -27.8228 159C-27.8228 152.373 -22.4502 147 -15.8228 147H140.177ZM360.177 147C366.805 147 372.177 152.373 372.177 159C372.177 165.627 366.805 171 360.177 171H282.177L282.178 171.01C275.782 171.272 270.677 176.54 270.677 183C270.677 189.46 275.782 194.728 282.178 194.99L282.177 195H442.177C448.805 195 454.177 200.373 454.177 207C454.177 213.627 448.805 219 442.177 219H185.177C178.55 219 173.177 213.627 173.177 207C173.177 200.373 178.55 195 185.177 195H234.177C240.805 195 246.177 189.627 246.177 183C246.177 176.373 240.805 171 234.177 171H204.177C197.55 171 192.177 165.627 192.177 159C192.177 152.373 197.55 147 204.177 147H360.177ZM155.177 243C161.805 243 167.177 248.373 167.177 255C167.177 261.627 161.805 267 155.177 267H82.1772C75.5498 267 70.1772 261.627 70.1772 255C70.1772 248.373 75.5498 243 82.1772 243H155.177ZM442.177 243C448.805 243 454.177 248.373 454.177 255C454.177 261.627 448.805 267 442.177 267H369.177C362.55 267 357.177 261.627 357.177 255C357.177 248.373 362.55 243 369.177 243H442.177ZM706.177 255C706.177 248.373 700.805 243 694.177 243H528.177C521.55 243 516.177 248.373 516.177 255C516.177 261.627 521.55 267 528.177 267H694.177C700.805 267 706.177 261.627 706.177 255ZM516.177 171C522.805 171 528.177 176.373 528.177 183C528.177 189.627 522.805 195 516.177 195H507.177C500.55 195 495.177 200.373 495.177 207C495.177 213.627 500.55 219 507.177 219H764.177C770.805 219 776.177 213.627 776.177 207C776.177 200.373 770.805 195 764.177 195H564.177L564.178 194.99C557.782 194.728 552.677 189.46 552.677 183C552.677 176.54 557.782 171.272 564.178 171.01L564.177 171H588.177C594.805 171 600.177 165.627 600.177 159C600.177 152.373 594.805 147 588.177 147H432.177C425.55 147 420.177 152.373 420.177 159C420.177 165.627 425.55 171 432.177 171H516.177ZM814.177 159C814.177 152.373 808.805 147 802.177 147H646.177C639.55 147 634.177 152.373 634.177 159C634.177 165.627 639.55 171 646.177 171H802.177C808.805 171 814.177 165.627 814.177 159Z" fill="#356CEE"/>
</g>
<mask id="mask2" mask-type="alpha" maskUnits="userSpaceOnUse" x="125" y="125" width="450" height="450">
<circle cx="350" cy="350" r="225" fill="white"/>
</mask>
<g mask="url(#mask2)">
<path opacity="0.4" fill-rule="evenodd" clip-rule="evenodd" d="M140.177 459C146.805 459 152.177 464.373 152.177 471C152.177 477.627 146.805 483 140.177 483H-15.8228C-22.4502 483 -27.8228 477.627 -27.8228 471C-27.8228 464.373 -22.4502 459 -15.8228 459H140.177ZM360.177 459C366.805 459 372.177 464.373 372.177 471C372.177 477.627 366.805 483 360.177 483H282.177L282.178 483.01C275.782 483.272 270.677 488.54 270.677 495C270.677 501.46 275.782 506.728 282.178 506.99L282.177 507H442.177C448.805 507 454.177 512.373 454.177 519C454.177 525.627 448.805 531 442.177 531H185.177C178.55 531 173.177 525.627 173.177 519C173.177 512.373 178.55 507 185.177 507H234.177C240.805 507 246.177 501.627 246.177 495C246.177 488.373 240.805 483 234.177 483H204.177C197.55 483 192.177 477.627 192.177 471C192.177 464.373 197.55 459 204.177 459H360.177ZM155.177 555C161.805 555 167.177 560.373 167.177 567C167.177 573.627 161.805 579 155.177 579H82.1772C75.5498 579 70.1772 573.627 70.1772 567C70.1772 560.373 75.5498 555 82.1772 555H155.177ZM442.177 555C448.805 555 454.177 560.373 454.177 567C454.177 573.627 448.805 579 442.177 579H369.177C362.55 579 357.177 573.627 357.177 567C357.177 560.373 362.55 555 369.177 555H442.177ZM706.177 567C706.177 560.373 700.805 555 694.177 555H528.177C521.55 555 516.177 560.373 516.177 567C516.177 573.627 521.55 579 528.177 579H694.177C700.805 579 706.177 573.627 706.177 567ZM516.177 483C522.805 483 528.177 488.373 528.177 495C528.177 501.627 522.805 507 516.177 507H507.177C500.55 507 495.177 512.373 495.177 519C495.177 525.627 500.55 531 507.177 531H764.177C770.805 531 776.177 525.627 776.177 519C776.177 512.373 770.805 507 764.177 507H564.177L564.178 506.99C557.782 506.728 552.677 501.46 552.677 495C552.677 488.54 557.782 483.272 564.178 483.01L564.177 483H588.177C594.805 483 600.177 477.627 600.177 471C600.177 464.373 594.805 459 588.177 459H432.177C425.55 459 420.177 464.373 420.177 471C420.177 477.627 425.55 483 432.177 483H516.177ZM814.177 471C814.177 464.373 808.805 459 802.177 459H646.177C639.55 459 634.177 464.373 634.177 471C634.177 477.627 639.55 483 646.177 483H802.177C808.805 483 814.177 477.627 814.177 471Z" fill="#356CEE"/>
</g>
<mask id="mask3" mask-type="alpha" maskUnits="userSpaceOnUse" x="125" y="125" width="450" height="450">
<circle cx="350" cy="350" r="225" fill="white"/>
</mask>
<g mask="url(#mask3)">
<path d="M273.177 399C273.177 392.373 267.805 387 261.177 387H242.177C235.55 387 230.177 381.627 230.177 375C230.177 368.373 235.55 363 242.177 363H321.177C327.805 363 333.177 368.373 333.177 375C333.177 381.627 327.805 387 321.177 387H318.177L318.177 387.01C311.782 387.272 306.678 392.54 306.678 399C306.678 405.46 311.782 410.728 318.177 410.99L318.177 411H321.177C327.805 411 333.177 416.373 333.177 423C333.177 429.627 327.805 435 321.177 435H260.177C253.55 435 248.177 429.627 248.177 423C248.177 416.373 253.55 411 260.177 411H261.177C267.805 411 273.177 405.627 273.177 399Z" fill="#2255CA"/>
</g>
<mask id="mask4" mask-type="alpha" maskUnits="userSpaceOnUse" x="125" y="125" width="450" height="450">
<circle cx="350" cy="350" r="225" fill="white"/>
</mask>
<g mask="url(#mask4)">
<rect opacity="0.0775757" x="350" y="136" width="215.354" height="428" fill="black"/>
</g>
<path fill-rule="evenodd" clip-rule="evenodd" d="M350 568C470.398 568 568 470.398 568 350C568 229.602 470.398 132 350 132V568Z" fill="#94D5FF"/>
<mask id="mask5" mask-type="alpha" maskUnits="userSpaceOnUse" x="350" y="132" width="218" height="436">
<path fill-rule="evenodd" clip-rule="evenodd" d="M350 568C470.398 568 568 470.398 568 350C568 229.602 470.398 132 350 132V568Z" fill="white"/>
</mask>
<g mask="url(#mask5)">
<circle cx="350" cy="350" r="211" fill="#2959C9"/>
<circle cx="350" cy="350" r="147" fill="#6593FF"/>
<circle cx="350" cy="350" r="82" fill="#4A7AE9"/>
<circle cx="350" cy="350" r="32" fill="#042570"/>
</g>
</svg>
