<svg width="700" height="700" viewBox="0 0 700 700" fill="none" xmlns="http://www.w3.org/2000/svg">
<circle cx="350" cy="350" r="200" fill="#F7CC7F"/>
<mask id="mask0" mask-type="alpha" maskUnits="userSpaceOnUse" x="150" y="150" width="400" height="400">
<circle cx="350" cy="350" r="200" fill="white"/>
</mask>
<g mask="url(#mask0)">
<path fill-rule="evenodd" clip-rule="evenodd" d="M459 185C459 178.373 453.627 173 447 173H190C183.373 173 178 178.373 178 185C178 191.627 183.373 197 190 197H310C316.627 197 322 202.373 322 209C322 215.627 316.627 221 310 221H306C299.373 221 294 226.373 294 233C294 239.627 299.373 245 306 245H382C388.627 245 394 239.627 394 233C394 226.373 388.627 221 382 221H379L378.999 220.99C372.604 220.727 367.5 215.46 367.5 209C367.5 202.54 372.604 197.273 378.999 197.01L379 197H447C453.627 197 459 191.627 459 185ZM440 281C440 274.373 434.627 269 428 269H366C359.373 269 354 274.373 354 281C354 287.627 359.373 293 366 293H428C434.627 293 440 287.627 440 281ZM140.5 317C147.127 317 152.5 322.373 152.5 329C152.5 335.627 147.127 341 140.5 341H96.5C89.8726 341 84.5 335.627 84.5 329C84.5 322.373 89.8726 317 96.5 317H140.5ZM452 329C452 322.373 446.627 317 440 317H209C202.373 317 197 322.373 197 329C197 335.627 202.373 341 209 341H279C285.627 341 291 346.373 291 353C291 359.627 285.627 365 279 365H270C263.373 365 258 370.373 258 377C258 383.627 263.373 389 270 389H412C418.627 389 424 394.373 424 401C424 407.627 418.627 413 412 413H406C399.373 413 394 418.373 394 425C394 431.627 399.373 437 406 437H482C488.627 437 494 431.627 494 425C494 418.373 488.627 413 482 413H481L480.999 412.99C474.604 412.727 469.5 407.46 469.5 401C469.5 394.54 474.604 389.273 480.999 389.01L481 389H501C507.627 389 513 383.627 513 377C513 370.373 507.627 365 501 365H421V364.99C414.605 364.727 409.5 359.46 409.5 353C409.5 346.54 414.605 341.273 421 341.01V341H440C446.627 341 452 335.627 452 329ZM472 473C472 466.373 466.627 461 460 461H229C222.373 461 217 466.373 217 473C217 479.627 222.373 485 229 485H270C276.627 485 282 490.373 282 497C282 503.627 276.627 509 270 509H266C259.373 509 254 514.373 254 521C254 527.627 259.373 533 266 533H342C348.627 533 354 527.627 354 521C354 514.373 348.627 509 342 509H339L338.999 508.99C332.604 508.727 327.5 503.46 327.5 497C327.5 490.54 332.604 485.273 338.999 485.01L339 485H460C466.627 485 472 479.627 472 473ZM267 413C273.627 413 279 418.373 279 425C279 431.627 273.627 437 267 437H191C184.373 437 179 431.627 179 425C179 418.373 184.373 413 191 413H267ZM605 377C605 370.373 599.627 365 593 365H552C545.373 365 540 370.373 540 377C540 383.627 545.373 389 552 389H593C599.627 389 605 383.627 605 377ZM289 269C295.627 269 301 274.373 301 281C301 287.627 295.627 293 289 293H269C262.373 293 257 287.627 257 281C257 274.373 262.373 269 269 269H289ZM450 221C456.627 221 462 226.373 462 233C462 239.627 456.627 245 450 245H430C423.373 245 418 239.627 418 233C418 226.373 423.373 221 430 221H450ZM270 233C270 226.373 264.627 221 258 221H238C231.373 221 226 226.373 226 233C226 239.627 231.373 245 238 245H258C264.627 245 270 239.627 270 233Z" fill="#FFE6AE"/>
</g>
<mask id="mask1" mask-type="alpha" maskUnits="userSpaceOnUse" x="150" y="150" width="400" height="400">
<circle cx="350" cy="350" r="200" fill="white"/>
</mask>
<g mask="url(#mask1)">
<path fill-rule="evenodd" clip-rule="evenodd" d="M237 341C243.627 341 249 346.373 249 353C249 359.627 243.627 365 237 365H233C226.373 365 221 370.373 221 377C221 383.627 226.373 389 233 389H309C315.627 389 321 383.627 321 377C321 370.373 315.627 365 309 365H306L305.999 364.99C299.604 364.727 294.5 359.46 294.5 353C294.5 346.54 299.604 341.273 305.999 341.01L306 341H374C380.627 341 386 335.627 386 329C386 322.373 380.627 317 374 317H214L214 316.99C207.605 316.728 202.5 311.46 202.5 305C202.5 298.54 207.605 293.272 214 293.01L214 293H292C298.627 293 304 287.627 304 281C304 274.373 298.627 269 292 269H136C129.373 269 124 274.373 124 281C124 287.627 129.373 293 136 293H166C172.627 293 178 298.373 178 305C178 311.627 172.627 317 166 317H152C145.373 317 140 322.373 140 329C140 335.627 145.373 341 152 341H237ZM367 425C367 418.373 361.627 413 355 413H293C286.373 413 281 418.373 281 425C281 431.627 286.373 437 293 437H355C361.627 437 367 431.627 367 425ZM377 365C383.627 365 389 370.373 389 377C389 383.627 383.627 389 377 389H357C350.373 389 345 383.627 345 377C345 370.373 350.373 365 357 365H377ZM565 377C565 370.373 559.627 365 553 365H452C445.373 365 440 370.373 440 377C440 383.627 445.373 389 452 389H553C559.627 389 565 383.627 565 377ZM185 365C191.627 365 197 370.373 197 377C197 383.627 191.627 389 185 389H165C158.373 389 153 383.627 153 377C153 370.373 158.373 365 165 365H185ZM510 329C510 322.373 504.627 317 498 317H478C471.373 317 466 322.373 466 329C466 335.627 471.373 341 478 341H498C504.627 341 510 335.627 510 329Z" fill="#E29F58"/>
</g>
<mask id="mask2" mask-type="alpha" maskUnits="userSpaceOnUse" x="150" y="150" width="400" height="400">
<circle cx="350" cy="350" r="200" fill="white"/>
</mask>
<g mask="url(#mask2)">
<rect opacity="0.0775757" x="351" y="125" width="225" height="450" fill="black"/>
</g>
</svg>
