<svg width="700" height="700" viewBox="0 0 700 700" fill="none" xmlns="http://www.w3.org/2000/svg">
<path fill-rule="evenodd" clip-rule="evenodd" d="M69.3329 69.3315C69.4457 69.2103 69.5607 69.0912 69.6778 68.974C98.3824 40.2695 247.335 142.683 402.373 297.721C557.411 452.759 659.825 601.712 631.121 630.417C631.003 630.534 630.884 630.649 630.763 630.762L585.24 585.238C585.361 585.126 585.481 585.012 585.598 584.894C609.648 560.845 523.842 436.046 393.945 306.15C264.048 176.253 139.25 90.4467 115.2 114.496C115.083 114.614 114.969 114.733 114.857 114.855L69.3329 69.3315ZM125.895 125.894C148.781 103.008 267.532 184.653 391.133 308.254C514.734 431.855 596.38 550.606 573.494 573.492L556.35 556.349C556.473 556.238 556.593 556.123 556.71 556.006C577.851 534.866 502.62 425.36 388.677 311.417C274.735 197.475 165.229 122.244 144.088 143.385C143.971 143.502 143.857 143.622 143.746 143.744L125.895 125.894Z" fill="#B87D43"/>
<circle cx="350.047" cy="334.048" r="208" fill="#FCCB6B"/>
<mask id="mask0" mask-type="alpha" maskUnits="userSpaceOnUse" x="142" y="126" width="417" height="417">
<circle cx="350.047" cy="334.048" r="208" fill="white"/>
</mask>
<g mask="url(#mask0)">
<path fill-rule="evenodd" clip-rule="evenodd" d="M556.416 534.52C551.73 529.834 544.132 529.834 539.445 534.52C534.759 539.206 534.759 546.804 539.445 551.491L649.754 661.799C654.44 666.486 662.038 666.486 666.725 661.799C671.411 657.113 671.411 649.515 666.725 644.829L556.416 534.52ZM400.853 378.957C396.166 374.27 388.568 374.27 383.882 378.957C379.196 383.643 379.196 391.241 383.882 395.927L439.036 451.081L439.029 451.088C443.366 455.796 443.251 463.13 438.683 467.698C434.115 472.266 426.78 472.382 422.073 468.045L422.066 468.052L308.929 354.915C304.242 350.229 296.644 350.229 291.958 354.915C287.272 359.601 287.272 367.199 291.958 371.885L473.685 553.612C478.371 558.298 485.969 558.298 490.655 553.612C495.341 548.926 495.341 541.328 490.655 536.641L456.007 501.993C451.321 497.307 451.321 489.709 456.007 485.023C460.693 480.336 468.291 480.336 472.977 485.023L494.191 506.236C498.877 510.922 506.475 510.922 511.161 506.236C515.847 501.549 515.847 493.951 511.161 489.265L400.853 378.957ZM477.927 591.796C473.241 587.109 465.643 587.109 460.957 591.796C456.27 596.482 456.27 604.08 460.957 608.766L512.575 660.385C517.262 665.071 524.86 665.071 529.546 660.385C534.232 655.699 534.232 648.101 529.546 643.414L477.927 591.796ZM274.988 388.856C270.301 384.17 262.703 384.17 258.017 388.856C253.331 393.542 253.331 401.14 258.017 405.827L309.636 457.445C314.322 462.132 321.92 462.132 326.606 457.445C331.293 452.759 331.293 445.161 326.606 440.475L274.988 388.856ZM79.8261 210.665C84.5124 205.979 92.1103 205.979 96.7966 210.665L214.176 328.045C218.863 332.731 218.863 340.329 214.176 345.015C209.49 349.702 201.892 349.702 197.206 345.015L79.8261 227.636C75.1398 222.949 75.1398 215.351 79.8261 210.665ZM273.573 285.618C268.887 280.932 261.289 280.932 256.603 285.618C251.916 290.305 251.916 297.903 256.603 302.589L262.967 308.953C267.653 313.639 267.653 321.237 262.967 325.924C258.28 330.61 250.682 330.61 245.996 325.924L64.2697 144.197C59.5834 139.511 59.5834 131.913 64.2697 127.227C68.956 122.54 76.554 122.54 81.2403 127.227L222.662 268.648L222.669 268.64C227.376 272.978 234.711 272.862 239.279 268.294C243.847 263.726 243.962 256.392 239.625 251.684L239.632 251.677L222.662 234.707C217.975 230.02 217.975 222.422 222.662 217.736C227.348 213.05 234.946 213.05 239.632 217.736L349.941 328.045C354.627 332.731 354.627 340.329 349.941 345.015C345.255 349.702 337.657 349.702 332.97 345.015L273.573 285.618ZM71.3408 66.4153C76.0271 61.7291 83.625 61.729 88.3113 66.4153L198.62 176.724C203.306 181.41 203.306 189.008 198.62 193.695C193.934 198.381 186.336 198.381 181.649 193.695L71.3408 83.3859C66.6545 78.6996 66.6545 71.1016 71.3408 66.4153Z" fill="#ECB55A"/>
</g>
<mask id="mask1" mask-type="alpha" maskUnits="userSpaceOnUse" x="142" y="126" width="417" height="417">
<circle cx="350.047" cy="334.048" r="208" fill="white"/>
</mask>
<g mask="url(#mask1)">
<rect opacity="0.0775757" x="350.047" y="126.048" width="209.089" height="416" fill="black"/>
</g>
<path fill-rule="evenodd" clip-rule="evenodd" d="M350.047 536.048C461.609 536.048 552.047 445.61 552.047 334.048C552.047 222.487 461.609 132.048 350.047 132.048V536.048Z" fill="#9C4925"/>
<mask id="mask2" mask-type="alpha" maskUnits="userSpaceOnUse" x="350" y="132" width="203" height="405">
<path fill-rule="evenodd" clip-rule="evenodd" d="M350.047 536.048C461.609 536.048 552.047 445.61 552.047 334.048C552.047 222.487 461.609 132.048 350.047 132.048V536.048Z" fill="white"/>
</mask>
<g mask="url(#mask2)">
<circle cx="351.047" cy="334.048" r="114" fill="#E09B7F"/>
<circle cx="350.547" cy="334.548" r="34.5" fill="#FFEECC"/>
</g>
<path fill-rule="evenodd" clip-rule="evenodd" d="M69.3315 69.3329C69.2103 69.4457 69.0912 69.5607 68.974 69.6778C40.2695 98.3824 142.683 247.335 297.721 402.373C452.759 557.411 601.712 659.825 630.417 631.121C630.534 631.003 630.649 630.884 630.762 630.763L585.238 585.24C585.126 585.361 585.012 585.481 584.894 585.598C560.845 609.648 436.046 523.842 306.15 393.945C176.253 264.048 90.4467 139.25 114.496 115.2C114.614 115.083 114.733 114.969 114.855 114.857L69.3315 69.3329ZM125.894 125.895C103.008 148.781 184.653 267.532 308.254 391.133C431.855 514.734 550.606 596.38 573.492 573.494L556.349 556.35C556.238 556.473 556.123 556.593 556.006 556.71C534.866 577.851 425.36 502.62 311.417 388.677C197.475 274.735 122.244 165.229 143.385 144.088C143.502 143.971 143.622 143.857 143.744 143.746L125.894 125.895Z" fill="#B87D43"/>
</svg>
