<svg width="700" height="700" viewBox="0 0 700 700" fill="none" xmlns="http://www.w3.org/2000/svg">
<circle cx="350" cy="350" r="229" fill="#65F0D5"/>
<mask id="mask0" mask-type="alpha" maskUnits="userSpaceOnUse" x="121" y="121" width="458" height="458">
<circle cx="350" cy="350" r="229" fill="white"/>
</mask>
<g mask="url(#mask0)">
<path fill-rule="evenodd" clip-rule="evenodd" d="M566.12 -29C566.12 -22.3726 560.748 -17 554.12 -17C547.493 -17 542.12 -22.3726 542.12 -29V-185C542.12 -191.627 547.493 -197 554.12 -197C560.748 -197 566.12 -191.627 566.12 -185V-29ZM566.12 191C566.12 197.627 560.748 203 554.12 203C547.493 203 542.12 197.627 542.12 191V113L542.11 113C541.848 106.605 536.58 101.5 530.12 101.5C523.66 101.5 518.392 106.605 518.13 113L518.12 113V273C518.12 279.627 512.748 285 506.12 285C499.493 285 494.12 279.627 494.12 273V16C494.12 9.37259 499.493 4 506.12 4C512.748 4 518.12 9.37259 518.12 16V65C518.12 71.6274 523.493 77 530.12 77C536.748 77 542.12 71.6274 542.12 65V35C542.12 28.3726 547.493 23 554.12 23C560.748 23 566.12 28.3726 566.12 35V191ZM470.12 -14C470.12 -7.37259 464.748 -2 458.12 -2C451.493 -2 446.12 -7.37259 446.12 -14V-87C446.12 -93.6274 451.493 -99 458.12 -99C464.748 -99 470.12 -93.6274 470.12 -87V-14ZM470.12 273C470.12 279.627 464.748 285 458.12 285C451.493 285 446.12 279.627 446.12 273V200C446.12 193.373 451.493 188 458.12 188C464.748 188 470.12 193.373 470.12 200V273ZM458.12 537C464.748 537 470.12 531.627 470.12 525L470.12 359C470.12 352.373 464.748 347 458.12 347C451.493 347 446.12 352.373 446.12 359L446.12 525C446.12 531.627 451.493 537 458.12 537ZM542.12 347C542.12 353.627 536.748 359 530.12 359C523.493 359 518.12 353.627 518.12 347V338C518.12 331.373 512.748 326 506.12 326C499.493 326 494.12 331.373 494.12 338L494.12 595C494.12 601.627 499.493 607 506.12 607C512.748 607 518.12 601.627 518.12 595V395L518.13 395C518.392 388.605 523.66 383.5 530.12 383.5C536.58 383.5 541.848 388.605 542.11 395L542.12 395V419C542.12 425.627 547.493 431 554.12 431C560.748 431 566.12 425.627 566.12 419V263C566.12 256.373 560.748 251 554.12 251C547.493 251 542.12 256.373 542.12 263V347ZM554.12 645C560.748 645 566.12 639.627 566.12 633V477C566.12 470.373 560.748 465 554.12 465C547.493 465 542.12 470.373 542.12 477V633C542.12 639.627 547.493 645 554.12 645Z" fill="#49CBC2"/>
</g>
<mask id="mask1" mask-type="alpha" maskUnits="userSpaceOnUse" x="121" y="121" width="458" height="458">
<circle cx="350" cy="350" r="229" fill="white"/>
</mask>
<g mask="url(#mask1)">
<path fill-rule="evenodd" clip-rule="evenodd" d="M302.12 -99C302.12 -92.3726 307.493 -87 314.12 -87C320.748 -87 326.12 -92.3726 326.12 -99V-255C326.12 -261.627 320.748 -267 314.12 -267C307.493 -267 302.12 -261.627 302.12 -255V-99ZM302.12 121C302.12 127.627 307.493 133 314.12 133C320.748 133 326.12 127.627 326.12 121V43L326.13 43.0004C326.392 36.6047 331.66 31.5 338.12 31.5C344.58 31.5 349.848 36.6047 350.11 43.0004L350.12 43V203C350.12 209.627 355.493 215 362.12 215C368.748 215 374.12 209.627 374.12 203V-54C374.12 -60.6274 368.748 -66 362.12 -66C355.493 -66 350.12 -60.6274 350.12 -54V-5C350.12 1.62741 344.748 7 338.12 7C331.493 7 326.12 1.62741 326.12 -5V-35C326.12 -41.6274 320.748 -47 314.12 -47C307.493 -47 302.12 -41.6274 302.12 -35V121ZM398.12 -84C398.12 -77.3726 403.493 -72 410.12 -72C416.748 -72 422.12 -77.3726 422.12 -84V-157C422.12 -163.627 416.748 -169 410.12 -169C403.493 -169 398.12 -163.627 398.12 -157V-84ZM398.12 203C398.12 209.627 403.493 215 410.12 215C416.748 215 422.12 209.627 422.12 203V130C422.12 123.373 416.748 118 410.12 118C403.493 118 398.12 123.373 398.12 130V203ZM410.12 467C403.493 467 398.12 461.627 398.12 455L398.12 289C398.12 282.373 403.493 277 410.12 277C416.748 277 422.12 282.373 422.12 289L422.12 455C422.12 461.627 416.748 467 410.12 467ZM326.12 277C326.12 283.627 331.493 289 338.12 289C344.748 289 350.12 283.627 350.12 277V268C350.12 261.373 355.493 256 362.12 256C368.748 256 374.12 261.373 374.12 268L374.12 525C374.12 531.627 368.748 537 362.12 537C355.493 537 350.12 531.627 350.12 525V325L350.11 325C349.848 318.605 344.58 313.5 338.12 313.5C331.66 313.5 326.392 318.605 326.13 325L326.12 325V349C326.12 355.627 320.748 361 314.12 361C307.493 361 302.12 355.627 302.12 349L302.12 193C302.12 186.373 307.493 181 314.12 181C320.748 181 326.12 186.373 326.12 193L326.12 277ZM314.12 575C307.493 575 302.12 569.627 302.12 563V407C302.12 400.373 307.493 395 314.12 395C320.748 395 326.12 400.373 326.12 407V563C326.12 569.627 320.748 575 314.12 575Z" fill="#50DECD"/>
</g>
<mask id="mask2" mask-type="alpha" maskUnits="userSpaceOnUse" x="121" y="121" width="458" height="458">
<circle cx="350" cy="350" r="229" fill="white"/>
</mask>
<g mask="url(#mask2)">
<path fill-rule="evenodd" clip-rule="evenodd" d="M278.12 -132C278.12 -125.373 272.748 -120 266.12 -120C259.493 -120 254.12 -125.373 254.12 -132V-288C254.12 -294.627 259.493 -300 266.12 -300C272.748 -300 278.12 -294.627 278.12 -288V-132ZM278.12 88C278.12 94.6274 272.748 100 266.12 100C259.493 100 254.12 94.6274 254.12 88V10L254.11 10.0004C253.848 3.60468 248.58 -1.5 242.12 -1.5C235.66 -1.5 230.392 3.60468 230.13 10.0004L230.12 10V170C230.12 176.627 224.748 182 218.12 182C211.493 182 206.12 176.627 206.12 170L206.12 -87C206.12 -93.6274 211.493 -99 218.12 -99C224.748 -99 230.12 -93.6274 230.12 -87V-38C230.12 -31.3726 235.493 -26 242.12 -26C248.748 -26 254.12 -31.3726 254.12 -38L254.12 -68C254.12 -74.6274 259.493 -80 266.12 -80C272.748 -80 278.12 -74.6274 278.12 -68V88ZM182.12 -117C182.12 -110.373 176.748 -105 170.12 -105C163.493 -105 158.12 -110.373 158.12 -117V-190C158.12 -196.627 163.493 -202 170.12 -202C176.748 -202 182.12 -196.627 182.12 -190V-117ZM182.12 170C182.12 176.627 176.748 182 170.12 182C163.493 182 158.12 176.627 158.12 170V97C158.12 90.3726 163.493 85 170.12 85C176.748 85 182.12 90.3726 182.12 97V170ZM170.12 434C176.748 434 182.12 428.627 182.12 422L182.12 256C182.12 249.373 176.748 244 170.12 244C163.493 244 158.12 249.373 158.12 256L158.12 422C158.12 428.627 163.493 434 170.12 434ZM254.12 244C254.12 250.627 248.748 256 242.12 256C235.493 256 230.12 250.627 230.12 244V235C230.12 228.373 224.748 223 218.12 223C211.493 223 206.12 228.373 206.12 235L206.12 492C206.12 498.627 211.493 504 218.12 504C224.748 504 230.12 498.627 230.12 492L230.12 292L230.13 292C230.392 285.605 235.66 280.5 242.12 280.5C248.58 280.5 253.848 285.605 254.11 292L254.12 292V316C254.12 322.627 259.493 328 266.12 328C272.748 328 278.12 322.627 278.12 316L278.12 160C278.12 153.373 272.748 148 266.12 148C259.493 148 254.12 153.373 254.12 160V244ZM266.12 542C272.748 542 278.12 536.627 278.12 530V374C278.12 367.373 272.748 362 266.12 362C259.493 362 254.12 367.373 254.12 374V530C254.12 536.627 259.493 542 266.12 542Z" fill="#77FFF5"/>
</g>
<mask id="mask3" mask-type="alpha" maskUnits="userSpaceOnUse" x="121" y="121" width="458" height="458">
<circle cx="350" cy="350" r="229" fill="white"/>
</mask>
<g mask="url(#mask3)">
<rect opacity="0.0775757" x="350" y="121" width="229" height="458" fill="black"/>
</g>
<path fill-rule="evenodd" clip-rule="evenodd" d="M350 571C472.055 571 571 472.055 571 350C571 227.945 472.055 129 350 129V571Z" fill="#138B83"/>
<mask id="mask4" mask-type="alpha" maskUnits="userSpaceOnUse" x="350" y="129" width="221" height="442">
<path fill-rule="evenodd" clip-rule="evenodd" d="M350 571C472.055 571 571 472.055 571 350C571 227.945 472.055 129 350 129V571Z" fill="white"/>
</mask>
<g mask="url(#mask4)">
<circle cx="351" cy="350" r="145" fill="#1BB9AE"/>
<circle cx="349.5" cy="350.5" r="32.5" fill="#06504C"/>
</g>
</svg>
