<svg width="700" height="700" viewBox="0 0 700 700" fill="none" xmlns="http://www.w3.org/2000/svg">
<circle cx="350" cy="350" r="168" fill="#FF6A45"/>
<mask id="mask0" mask-type="alpha" maskUnits="userSpaceOnUse" x="182" y="182" width="336" height="336">
<circle cx="350" cy="350" r="168" fill="white"/>
</mask>
<g mask="url(#mask0)">
<path fill-rule="evenodd" clip-rule="evenodd" d="M272 206C278.627 206 284 211.373 284 218C284 224.627 278.627 230 272 230H223C216.373 230 211 235.373 211 242C211 248.627 216.373 254 223 254H350C356.627 254 362 248.627 362 242C362 235.373 356.627 230 350 230H337L336.999 229.99C330.604 229.727 325.5 224.46 325.5 218C325.5 211.54 330.604 206.273 336.999 206.01L337 206H393C399.627 206 405 200.627 405 194C405 187.373 399.627 182 393 182H237C230.373 182 225 187.373 225 194C225 200.627 230.373 206 237 206H272ZM468 242C468 235.373 462.627 230 456 230H451C444.373 230 439 235.373 439 242C439 248.627 444.373 254 451 254H456C462.627 254 468 248.627 468 242Z" fill="#FF9B6B"/>
</g>
<mask id="mask1" mask-type="alpha" maskUnits="userSpaceOnUse" x="182" y="182" width="336" height="336">
<circle cx="350" cy="350" r="168" fill="white"/>
</mask>
<g mask="url(#mask1)">
<path fill-rule="evenodd" clip-rule="evenodd" d="M379 494C385.627 494 391 499.373 391 506C391 512.627 385.627 518 379 518H330C323.373 518 318 523.373 318 530C318 536.627 323.373 542 330 542H457C463.627 542 469 536.627 469 530C469 523.373 463.627 518 457 518H444L443.999 517.99C437.604 517.727 432.5 512.46 432.5 506C432.5 499.54 437.604 494.273 443.999 494.01L444 494H500C506.627 494 512 488.627 512 482C512 475.373 506.627 470 500 470H344C337.373 470 332 475.373 332 482C332 488.627 337.373 494 344 494H379ZM575 530C575 523.373 569.627 518 563 518H558C551.373 518 546 523.373 546 530C546 536.627 551.373 542 558 542H563C569.627 542 575 536.627 575 530Z" fill="#FF9B6B"/>
</g>
<mask id="mask2" mask-type="alpha" maskUnits="userSpaceOnUse" x="182" y="182" width="336" height="336">
<circle cx="350" cy="350" r="168" fill="white"/>
</mask>
<g mask="url(#mask2)">
<path fill-rule="evenodd" clip-rule="evenodd" d="M321 254C327.627 254 333 259.373 333 266C333 272.627 327.627 278 321 278H281C274.373 278 269 272.627 269 266C269 259.373 274.373 254 281 254H321ZM445 350C451.627 350 457 355.373 457 362C457 368.627 451.627 374 445 374H294L293.999 374.01C287.604 374.273 282.5 379.54 282.5 386C282.5 392.46 287.604 397.727 293.999 397.99L294 398H313C319.627 398 325 403.373 325 410C325 416.627 319.627 422 313 422H193C186.373 422 181 416.627 181 410C181 403.373 186.373 398 193 398H225C231.627 398 237 392.627 237 386C237 379.373 231.627 374 225 374H161C154.373 374 149 368.627 149 362C149 355.373 154.373 350 161 350H445ZM294 458C294 451.373 288.627 446 282 446H262C255.373 446 250 451.373 250 458C250 464.627 255.373 470 262 470H282C288.627 470 294 464.627 294 458ZM411 458C411 451.373 405.627 446 399 446H337C330.373 446 325 451.373 325 458C325 464.627 330.373 470 337 470H399C405.627 470 411 464.627 411 458ZM405 410C405 403.373 399.627 398 393 398H373C366.373 398 361 403.373 361 410C361 416.627 366.373 422 373 422H393C399.627 422 405 416.627 405 410ZM542 266C542 259.373 536.627 254 530 254H490C483.373 254 478 259.373 478 266C478 272.627 483.373 278 490 278H530C536.627 278 542 272.627 542 266Z" fill="#D04237"/>
</g>
<mask id="mask3" mask-type="alpha" maskUnits="userSpaceOnUse" x="182" y="182" width="336" height="336">
<circle cx="350" cy="350" r="168" fill="white"/>
</mask>
<g mask="url(#mask3)">
<rect opacity="0.0775757" x="351" y="166" width="184" height="368" fill="black"/>
</g>
<path fill-rule="evenodd" clip-rule="evenodd" d="M351 511C439.918 511 512 438.918 512 350C512 261.082 439.918 189 351 189V511Z" fill="#97271E"/>
<mask id="mask4" mask-type="alpha" maskUnits="userSpaceOnUse" x="351" y="189" width="161" height="322">
<path fill-rule="evenodd" clip-rule="evenodd" d="M351 511C439.918 511 512 438.918 512 350C512 261.082 439.918 189 351 189V511Z" fill="white"/>
</mask>
<g mask="url(#mask4)">
<circle cx="352" cy="350" r="154" fill="#DC5D1C"/>
<circle cx="352" cy="350" r="79" fill="#F8A053"/>
<circle cx="352" cy="350" r="54" fill="#FFCA79"/>
<circle cx="352" cy="351" r="40" fill="#FFF5C6"/>
</g>
</svg>
