<svg width="700" height="700" viewBox="0 0 700 700" fill="none" xmlns="http://www.w3.org/2000/svg">
<circle cx="350" cy="350" r="225" fill="#545BFE"/>
<mask id="mask0" mask-type="alpha" maskUnits="userSpaceOnUse" x="125" y="125" width="450" height="450">
<circle cx="350" cy="350" r="225" fill="white"/>
</mask>
<g mask="url(#mask0)">
<path fill-rule="evenodd" clip-rule="evenodd" d="M313 152C313 145.373 307.627 140 301 140H96C89.3726 140 84 145.373 84 152C84 158.627 89.3726 164 96 164H144C150.627 164 156 169.373 156 176C156 182.627 150.627 188 144 188H138C131.373 188 126 193.373 126 200C126 206.627 131.373 212 138 212H134C140.627 212 146 217.373 146 224C146 230.627 140.627 236 134 236H124C117.373 236 112 241.373 112 248C112 254.627 117.373 260 124 260H243C249.627 260 255 254.627 255 248C255 241.373 249.627 236 243 236H238L238 235.99C231.605 235.728 226.5 230.46 226.5 224C226.5 217.54 231.605 212.272 238 212.01L238 212H307C313.627 212 319 206.627 319 200C319 193.373 313.627 188 307 188H300L300 187.99C293.605 187.728 288.5 182.46 288.5 176C288.5 169.54 293.605 164.273 300 164.01L300 164H301C307.627 164 313 158.627 313 152ZM223 284C229.627 284 235 289.373 235 296C235 302.627 229.627 308 223 308C216.373 308 211 302.627 211 296C211 289.373 216.373 284 223 284ZM186 320C186 313.373 180.627 308 174 308H139C132.373 308 127 313.373 127 320C127 326.627 132.373 332 139 332H174C180.627 332 186 326.627 186 320ZM271 464C271 470.627 265.627 476 259 476H264C257.373 476 252 481.373 252 488C252 494.627 257.373 500 264 500H293C299.627 500 305 494.627 305 488C305 481.373 299.627 476 293 476H297V475.99C290.605 475.728 285.5 470.46 285.5 464C285.5 457.54 290.605 452.272 297 452.01V452H324C330.627 452 336 446.627 336 440C336 433.373 330.627 428 324 428L324 427.99C317.605 427.728 312.5 422.46 312.5 416C312.5 409.54 317.605 404.272 324 404.01L324 404H330C336.627 404 342 398.627 342 392C342 385.373 336.627 380 330 380H279V379.99C272.605 379.727 267.5 374.46 267.5 368C267.5 361.54 272.605 356.273 279 356.01V356H277C283.627 356 289 350.627 289 344C289 337.373 283.627 332 277 332H228C221.373 332 216 337.373 216 344C216 350.627 221.373 356 228 356C234.627 356 240 361.373 240 368C240 374.627 234.627 380 228 380C221.373 380 216 385.373 216 392C216 398.627 221.373 404 228 404H238C244.627 404 250 409.373 250 416C250 422.627 244.627 428 238 428H240C233.373 428 228 433.373 228 440C228 446.627 233.373 452 240 452H259C265.627 452 271 457.373 271 464Z" fill="#4FCDF9"/>
</g>
<mask id="mask1" mask-type="alpha" maskUnits="userSpaceOnUse" x="125" y="125" width="450" height="450">
<circle cx="350" cy="350" r="225" fill="white"/>
</mask>
<g mask="url(#mask1)">
<path fill-rule="evenodd" clip-rule="evenodd" d="M547 176C547 169.373 541.627 164 535 164H511C504.373 164 499 169.373 499 176C499 182.627 504.373 188 511 188H535C541.627 188 547 182.627 547 176ZM785 188C791.627 188 797 193.373 797 200C797 206.627 791.627 212 785 212H778V212.01C771.605 212.272 766.5 217.54 766.5 224C766.5 230.46 771.605 235.728 778 235.99V236H794C800.627 236 806 241.373 806 248C806 254.627 800.627 260 794 260H620C613.373 260 608 254.627 608 248C608 241.373 613.373 236 620 236H615C621.627 236 627 230.627 627 224C627 217.373 621.627 212 615 212H574C567.373 212 562 206.627 562 200C562 193.373 567.373 188 574 188H785ZM515 452C521.627 452 527 446.627 527 440C527 433.373 521.627 428 515 428C508.373 428 503 422.627 503 416C503 409.373 508.373 404 515 404H512C518.627 404 524 398.627 524 392C524 385.373 518.627 380 512 380H467C460.373 380 455 374.627 455 368C455 361.373 460.373 356 467 356C473.627 356 479 350.627 479 344C479 337.373 473.627 332 467 332H433C426.373 332 421 326.627 421 320C421 313.373 426.373 308 433 308H459C465.627 308 471 302.627 471 296C471 289.373 465.627 284 459 284C452.373 284 447 278.627 447 272C447 265.373 452.373 260 459 260H515C521.627 260 527 265.373 527 272C527 278.627 521.627 284 515 284L514.999 284.01C508.604 284.273 503.5 289.54 503.5 296C503.5 302.46 508.604 307.727 514.999 307.99L515 308H606C612.627 308 618 313.373 618 320C618 326.627 612.627 332 606 332H586L586 332.01C579.605 332.273 574.5 337.54 574.5 344C574.5 350.46 579.605 355.727 586 355.99L586 356H596C602.627 356 608 361.373 608 368C608 374.627 602.627 380 596 380H581L580.999 380.01C574.604 380.273 569.5 385.54 569.5 392C569.5 398.46 574.604 403.727 580.999 403.99L581 404H579C585.627 404 591 409.373 591 416C591 422.627 585.627 428 579 428H559L559 428.01C552.605 428.272 547.5 433.54 547.5 440C547.5 446.46 552.605 451.728 559 451.99L559 452H555C561.627 452 567 457.373 567 464C567 470.627 561.627 476 555 476H519C512.373 476 507 470.627 507 464C507 457.373 512.373 452 519 452H515ZM605 428C611.627 428 617 433.373 617 440C617 446.627 611.627 452 605 452C598.373 452 593 446.627 593 440C593 433.373 598.373 428 605 428ZM599 272C599 265.373 593.627 260 587 260H573C566.373 260 561 265.373 561 272C561 278.627 566.373 284 573 284H587C593.627 284 599 278.627 599 272ZM496 224C496 217.373 490.627 212 484 212H460C453.373 212 448 217.373 448 224C448 230.627 453.373 236 460 236H484C490.627 236 496 230.627 496 224ZM522 212C528.627 212 534 217.373 534 224C534 230.627 528.627 236 522 236H519C512.373 236 507 230.627 507 224C507 217.373 512.373 212 519 212H522Z" fill="#4FCDF9"/>
</g>
<mask id="mask2" mask-type="alpha" maskUnits="userSpaceOnUse" x="125" y="125" width="450" height="450">
<circle cx="350" cy="350" r="225" fill="white"/>
</mask>
<g mask="url(#mask2)">
<path fill-rule="evenodd" clip-rule="evenodd" d="M432 176C432 169.373 426.627 164 420 164H300C293.373 164 288 158.627 288 152C288 145.373 293.373 140 300 140H349C355.627 140 361 134.627 361 128C361 121.373 355.627 116 349 116H333C326.373 116 321 110.627 321 104C321 97.3726 326.373 92 333 92H395C401.627 92 407 97.3726 407 104C407 110.627 401.627 116 395 116H397L397 116.01C390.605 116.272 385.5 121.54 385.5 128C385.5 134.46 390.605 139.728 397 139.99L397 140H557C563.627 140 569 145.373 569 152C569 158.627 563.627 164 557 164H489L488.999 164.01C482.604 164.273 477.5 169.54 477.5 176C477.5 182.46 482.604 187.727 488.999 187.99L489 188H492C498.627 188 504 193.373 504 200C504 206.627 498.627 212 492 212H416C409.373 212 404 206.627 404 200C404 193.373 409.373 188 416 188H420C426.627 188 432 182.627 432 176ZM538 236C544.627 236 550 241.373 550 248C550 254.627 544.627 260 538 260H476C469.373 260 464 254.627 464 248C464 241.373 469.373 236 476 236H538ZM572 200C572 193.373 566.627 188 560 188H540C533.373 188 528 193.373 528 200C528 206.627 533.373 212 540 212H560C566.627 212 572 206.627 572 200ZM368 188C374.627 188 380 193.373 380 200C380 206.627 374.627 212 368 212H348C341.373 212 336 206.627 336 200C336 193.373 341.373 188 348 188H368ZM611 104C611 97.3726 605.627 92 599 92H443C436.373 92 431 97.3726 431 104C431 110.627 436.373 116 443 116H599C605.627 116 611 110.627 611 104Z" fill="white"/>
</g>
<mask id="mask3" mask-type="alpha" maskUnits="userSpaceOnUse" x="125" y="125" width="450" height="450">
<circle cx="350" cy="350" r="225" fill="white"/>
</mask>
<g mask="url(#mask3)">
<path fill-rule="evenodd" clip-rule="evenodd" d="M210 476C216.627 476 222 481.373 222 488C222 494.627 216.627 500 210 500H206C199.373 500 194 505.373 194 512C194 518.627 199.373 524 206 524H282C288.627 524 294 518.627 294 512C294 505.373 288.627 500 282 500H279L278.999 499.99C272.604 499.727 267.5 494.46 267.5 488C267.5 481.54 272.604 476.273 278.999 476.01L279 476H305C311.627 476 317 470.627 317 464C317 457.373 311.627 452 305 452H291L291 451.99C284.605 451.728 279.5 446.46 279.5 440C279.5 433.54 284.605 428.272 291 428.01L291 428H338C344.627 428 350 422.627 350 416C350 409.373 344.627 404 338 404H220C213.373 404 208 409.373 208 416C208 422.627 213.373 428 220 428H243C249.627 428 255 433.373 255 440C255 446.627 249.627 452 243 452H142C135.373 452 130 457.373 130 464C130 470.627 135.373 476 142 476H210ZM385 464C385 457.373 379.627 452 373 452H353C346.373 452 341 457.373 341 464C341 470.627 346.373 476 353 476H373C379.627 476 385 470.627 385 464Z" fill="white"/>
</g>
<mask id="mask4" mask-type="alpha" maskUnits="userSpaceOnUse" x="125" y="125" width="450" height="450">
<circle cx="350" cy="350" r="225" fill="white"/>
</mask>
<g mask="url(#mask4)">
<path fill-rule="evenodd" clip-rule="evenodd" d="M462 572C468.627 572 474 577.373 474 584C474 590.627 468.627 596 462 596H458C451.373 596 446 601.373 446 608C446 614.627 451.373 620 458 620H534C540.627 620 546 614.627 546 608C546 601.373 540.627 596 534 596H531L530.999 595.99C524.604 595.727 519.5 590.46 519.5 584C519.5 577.54 524.604 572.273 530.999 572.01L531 572H557C563.627 572 569 566.627 569 560C569 553.373 563.627 548 557 548H543L543 547.99C536.605 547.728 531.5 542.46 531.5 536C531.5 529.54 536.605 524.272 543 524.01L543 524H590C596.627 524 602 518.627 602 512C602 505.373 596.627 500 590 500H472C465.373 500 460 505.373 460 512C460 518.627 465.373 524 472 524H495C501.627 524 507 529.373 507 536C507 542.627 501.627 548 495 548H394C387.373 548 382 553.373 382 560C382 566.627 387.373 572 394 572H462ZM637 560C637 553.373 631.627 548 625 548H605C598.373 548 593 553.373 593 560C593 566.627 598.373 572 605 572H625C631.627 572 637 566.627 637 560Z" fill="white"/>
</g>
<mask id="mask5" mask-type="alpha" maskUnits="userSpaceOnUse" x="125" y="125" width="450" height="450">
<circle cx="350" cy="350" r="225" fill="white"/>
</mask>
<g mask="url(#mask5)">
<rect opacity="0.0775757" x="350.484" y="100" width="250.484" height="500" fill="black"/>
</g>
<path fill-rule="evenodd" clip-rule="evenodd" d="M350 568C470.398 568 568 470.398 568 350C568 229.602 470.398 132 350 132V568Z" fill="#2A2D80"/>
<mask id="mask6" mask-type="alpha" maskUnits="userSpaceOnUse" x="350" y="132" width="218" height="436">
<path fill-rule="evenodd" clip-rule="evenodd" d="M350 568C470.398 568 568 470.398 568 350C568 229.602 470.398 132 350 132V568Z" fill="white"/>
</mask>
<g mask="url(#mask6)">
<circle cx="351.5" cy="351.5" r="208.5" fill="#952525"/>
<circle cx="352" cy="350" r="178" fill="#E0592F"/>
<circle cx="352" cy="350" r="107" fill="#F89035"/>
<circle cx="351" cy="351" r="51" fill="#FFF1AA"/>
</g>
</svg>
